<svg width="21" height="21" viewBox="0 0 21 21" fill="none" xmlns="http://www.w3.org/2000/svg">
<path d="M18.3334 11.1583C18.2023 12.5768 17.67 13.9287 16.7986 15.0557C15.9273 16.1826 14.753 17.0382 13.4132 17.5221C12.0733 18.0061 10.6234 18.0984 9.233 17.7884C7.8426 17.4784 6.56924 16.7788 5.56194 15.7715C4.55463 14.7642 3.85503 13.4908 3.545 12.1004C3.23498 10.71 3.32734 9.26007 3.8113 7.92025C4.29525 6.58042 5.15077 5.40614 6.27776 4.53479C7.40474 3.66345 8.75658 3.13109 10.1751 3C9.34459 4.12356 8.94495 5.50787 9.04886 6.90118C9.15276 8.29448 9.7533 9.60422 10.7412 10.5922C11.7292 11.5801 13.0389 12.1807 14.4322 12.2846C15.8255 12.3885 17.2099 11.9888 18.3334 11.1583Z" fill="white" stroke="white" stroke-width="2" stroke-linecap="round" stroke-linejoin="round"/>
</svg>
