<svg width="21" height="21" viewBox="0 0 21 21" fill="none" xmlns="http://www.w3.org/2000/svg">
<g clip-path="url(#clip0_4492_1374)">
<path d="M10.1667 14.6654C12.4679 14.6654 14.3333 12.7999 14.3333 10.4987C14.3333 8.19751 12.4679 6.33203 10.1667 6.33203C7.86548 6.33203 6 8.19751 6 10.4987C6 12.7999 7.86548 14.6654 10.1667 14.6654Z" fill="#2C2C2C" stroke="#2C2C2C" stroke-width="2" stroke-linecap="round" stroke-linejoin="round"/>
<path d="M10.167 1.33203V2.9987" stroke="black" stroke-width="2" stroke-linecap="round" stroke-linejoin="round"/>
<path d="M10.167 18V19.6667" stroke="black" stroke-width="2" stroke-linecap="round" stroke-linejoin="round"/>
<path d="M3.68359 4.01562L4.86693 5.19896" stroke="black" stroke-width="2" stroke-linecap="round" stroke-linejoin="round"/>
<path d="M15.4668 15.8008L16.6501 16.9841" stroke="black" stroke-width="2" stroke-linecap="round" stroke-linejoin="round"/>
<path d="M1 10.5H2.66667" stroke="black" stroke-width="2" stroke-linecap="round" stroke-linejoin="round"/>
<path d="M17.667 10.5H19.3337" stroke="black" stroke-width="2" stroke-linecap="round" stroke-linejoin="round"/>
<path d="M3.68359 16.9841L4.86693 15.8008" stroke="black" stroke-width="2" stroke-linecap="round" stroke-linejoin="round"/>
<path d="M15.4668 5.19896L16.6501 4.01562" stroke="black" stroke-width="2" stroke-linecap="round" stroke-linejoin="round"/>
</g>
<defs>
<clipPath id="clip0_4492_1374">
<rect width="20" height="20" fill="white" transform="translate(0.166992 0.5)"/>
</clipPath>
</defs>
</svg>
