<svg width="266" height="58" viewBox="0 0 266 58" fill="none" xmlns="http://www.w3.org/2000/svg">
<rect x="3.93799" y="4.90234" width="123.287" height="48.6333" fill="white"/>
<path fill-rule="evenodd" clip-rule="evenodd" d="M127.462 0.585938H4.78033C2.20595 0.585938 0.117676 2.68105 0.117676 5.26161V52.6224C0.117676 55.2048 2.20595 57.2963 4.78033 57.2963H127.462C130.04 57.2963 132.128 55.2048 132.128 52.6224V5.26161C132.128 2.68105 130.04 0.585938 127.462 0.585938ZM125.237 46.7532C125.172 48.8246 123.236 50.5018 121.221 50.5438C116.003 50.5456 110.783 50.5438 105.564 50.5456C102.124 50.6752 98.616 50.1952 95.4572 48.7826C91.1677 46.87 87.663 43.3441 85.6148 39.1265C84.4933 36.7978 83.8451 34.2501 83.643 31.675C83.4701 29.2386 83.5902 26.7694 84.1419 24.3841C84.6863 21.9951 85.6603 19.7011 87.0331 17.6699C89.2743 14.3739 92.4677 11.6856 96.2018 10.2603C98.128 9.49746 100.174 9.07771 102.234 8.89521C104.092 8.76928 105.97 8.77293 107.816 9.03938C110.585 9.42811 113.287 10.3698 115.657 11.8663C117.871 13.257 119.828 15.0674 121.352 17.1972C123.134 19.6536 124.349 22.5207 124.88 25.5137C125.083 26.6288 125.186 27.7622 125.23 28.8937C125.265 29.6164 125.212 30.3427 125.241 31.0673C125.237 36.2959 125.246 41.5246 125.237 46.7532ZM62.7986 37.1628C61.0817 42.094 57.3585 46.2933 52.6576 48.5508C49.8429 49.9087 46.7078 50.5091 43.5981 50.5638C40.2536 50.6076 36.8563 50.051 33.8177 48.602C30.0617 46.828 26.9484 43.7967 24.9148 40.1795C23.4455 37.557 22.6116 34.5987 22.3913 31.602C22.1674 28.4411 22.4642 25.2126 23.5183 22.2123C24.3667 19.7577 25.7067 17.4764 27.4382 15.5474C29.297 13.4413 31.5928 11.7075 34.169 10.5852C36.3065 9.63251 38.6132 9.10508 40.94 8.89886C43.3014 8.72913 45.6973 8.79118 48.0168 9.29854C50.5985 9.83509 53.0745 10.8991 55.2393 12.4138C57.5934 14.0527 59.5997 16.1916 61.069 18.6608C62.5947 21.1976 63.5359 24.0738 63.8473 27.0176C64.2077 30.4212 63.9073 33.9179 62.7986 37.1628ZM77.5658 50.8741C70.1703 50.8741 69.3474 46.6985 69.3474 42.0921V12.881C69.3474 10.4428 71.3191 8.46633 73.7533 8.46633C76.1857 8.46633 78.1593 10.4428 78.1593 12.881V42.0921C80.3131 42.0921 81.9717 44.2493 81.9717 46.4576C81.9717 48.8958 79.9999 50.8741 77.5658 50.8741ZM16.2995 50.8741C8.90407 50.8741 8.07932 46.6985 8.07932 42.0921V12.881C8.07932 10.4428 10.0529 8.46633 12.4853 8.46633C14.9195 8.46633 16.8912 10.4428 16.8912 12.881V42.0921C19.0468 42.0921 20.7054 44.2493 20.7054 46.4576C20.7054 48.8958 18.7319 50.8741 16.2995 50.8741Z" fill="#ED174C"/>
<path fill-rule="evenodd" clip-rule="evenodd" d="M103.573 16.5278C105.235 16.442 106.916 16.6282 108.496 17.1629C111.091 18.0134 113.37 19.7325 114.979 21.9317C116.445 23.9264 117.335 26.3372 117.477 28.812C117.679 31.679 116.911 34.6064 115.296 36.9862C113.829 39.1744 111.719 40.9446 109.268 41.9192C106.16 43.1821 102.566 43.1821 99.4549 41.9265C96.8059 40.868 94.5483 38.8915 93.0791 36.4496C91.9175 34.5443 91.2639 32.3287 91.2184 30.0931C91.131 27.6604 91.7245 25.1966 92.9753 23.0997C93.8474 21.5612 95.0672 20.2399 96.4527 19.1504C98.4936 17.5918 101.006 16.6556 103.573 16.5278ZM105.871 35.3875C107.833 34.8856 109.457 33.2686 110.004 31.3177C110.366 30.0657 110.295 28.6952 109.813 27.487C109.346 26.3354 108.503 25.3408 107.458 24.6728C106.402 23.9994 105.13 23.7019 103.886 23.7987C101.856 23.9155 99.9902 25.2258 99.0781 27.0289C98.1477 28.8229 98.2515 31.1096 99.3402 32.8106C99.9155 33.7121 100.72 34.4804 101.683 34.9604C102.961 35.6138 104.487 35.7762 105.871 35.3875Z" fill="#ED174C"/>
<path fill-rule="evenodd" clip-rule="evenodd" d="M52.5778 20.5609C54.4949 22.552 55.793 25.1544 56.1408 27.9047C56.5049 30.613 56.0333 33.4382 54.7334 35.8454C53.3734 38.3839 51.1923 40.4918 48.5706 41.6836C45.7413 42.9903 42.4459 43.2184 39.4565 42.3588C35.3436 41.2018 31.9481 37.8675 30.6118 33.8123C29.7215 31.1021 29.7397 28.0982 30.6628 25.4008C31.9208 21.7745 34.8156 18.7395 38.3968 17.3653C39.6385 16.8963 40.9512 16.6006 42.2784 16.5313C43.3071 16.4984 44.3485 16.5021 45.3644 16.6955C48.1045 17.1499 50.6698 18.5443 52.5778 20.5609ZM47.8696 33.1425C49.0348 31.5621 49.3116 29.3793 48.5888 27.5525C48.1609 26.4447 47.3799 25.4884 46.4131 24.8077C45.2406 23.9919 43.7714 23.647 42.3567 23.8258C41.044 23.9755 39.7933 24.6106 38.8811 25.5687C37.8962 26.567 37.2717 27.9303 37.2116 29.3374C37.137 30.5254 37.4228 31.7354 38.0527 32.7483C38.8411 34.0331 40.1155 35.0259 41.5811 35.3982C42.9029 35.7614 44.3503 35.6209 45.5902 35.0387C46.5023 34.6244 47.2797 33.9473 47.8696 33.1425Z" fill="#ED174C"/>
<path fill-rule="evenodd" clip-rule="evenodd" d="M168.622 15.3468H160.618V8.85156H184.021V15.3468H176.017V35.5971H168.622V15.3468Z" fill="black"/>
<path fill-rule="evenodd" clip-rule="evenodd" d="M187.364 8.85547H208.824V15.1572H194.683V19.2069H207.488V25.0524H194.683V29.2974H209.015V35.5992H187.364V8.85547Z" fill="black"/>
<path fill-rule="evenodd" clip-rule="evenodd" d="M212.369 22.2996V22.223C212.369 14.4302 218.352 8.31641 226.434 8.31641C231.885 8.31641 235.393 10.6104 237.754 13.8936L232.19 18.2116C230.663 16.3027 228.91 15.0781 226.357 15.0781C222.621 15.0781 219.992 18.2518 219.992 22.1463V22.223C219.992 26.2344 222.621 29.3679 226.357 29.3679C229.141 29.3679 230.779 28.0703 232.38 26.1212L237.944 30.0943C235.429 33.5709 232.036 36.1296 226.13 36.1296C218.507 36.1296 212.369 30.2877 212.369 22.2996Z" fill="black"/>
<path fill-rule="evenodd" clip-rule="evenodd" d="M241.565 8.85547H248.96V18.8638H258.45V8.85547H265.845V35.5992H258.45V25.4357H248.96V35.5992H241.565V8.85547Z" fill="black"/>
<path fill-rule="evenodd" clip-rule="evenodd" d="M152.138 24.7852C150.964 23.9694 149.489 23.6208 148.075 23.7997C146.757 23.9493 145.506 24.5881 144.59 25.5481C143.605 26.5482 142.977 27.9133 142.917 29.324C142.844 30.5157 143.13 31.7294 143.76 32.7441C144.55 34.0307 145.828 35.0253 147.295 35.3976C148.623 35.7626 150.072 35.6221 151.314 35.0381C152.228 34.6238 153.007 33.9449 153.599 33.1364C154.767 31.5542 155.042 29.366 154.319 27.5355C153.89 26.4259 153.107 25.4659 152.138 24.7852Z" fill="black"/>
</svg>
