<svg width="266" height="58" viewBox="0 0 266 58" fill="none" xmlns="http://www.w3.org/2000/svg">
<rect x="3.9375" y="4.90234" width="123.287" height="48.6333" fill="white"/>
<path fill-rule="evenodd" clip-rule="evenodd" d="M127.462 0.585938H4.77984C2.20546 0.585938 0.117188 2.68105 0.117188 5.26161V52.6224C0.117188 55.2048 2.20546 57.2963 4.77984 57.2963H127.462C130.04 57.2963 132.128 55.2048 132.128 52.6224V5.26161C132.128 2.68105 130.04 0.585938 127.462 0.585938ZM125.237 46.7532C125.171 48.8246 123.236 50.5018 121.22 50.5438C116.003 50.5456 110.783 50.5438 105.563 50.5456C102.124 50.6752 98.6155 50.1952 95.4567 48.7826C91.1672 46.87 87.6625 43.3441 85.6143 39.1265C84.4928 36.7978 83.8446 34.2501 83.6425 31.675C83.4696 29.2386 83.5897 26.7694 84.1414 24.3841C84.6858 21.9951 85.6598 19.7011 87.0326 17.6699C89.2738 14.3739 92.4672 11.6856 96.2013 10.2603C98.1275 9.49746 100.174 9.07771 102.233 8.89521C104.092 8.76928 105.969 8.77293 107.815 9.03938C110.584 9.42811 113.286 10.3698 115.657 11.8663C117.871 13.257 119.828 15.0674 121.352 17.1972C123.134 19.6536 124.348 22.5207 124.88 25.5137C125.082 26.6288 125.186 27.7622 125.23 28.8937C125.264 29.6164 125.211 30.3427 125.24 31.0673C125.237 36.2959 125.246 41.5246 125.237 46.7532ZM62.7981 37.1628C61.0812 42.094 57.358 46.2933 52.6571 48.5508C49.8424 49.9087 46.7073 50.5091 43.5976 50.5638C40.2531 50.6076 36.8558 50.051 33.8172 48.602C30.0612 46.828 26.9479 43.7967 24.9143 40.1795C23.445 37.557 22.6112 34.5987 22.3909 31.602C22.1669 28.4411 22.4637 25.2126 23.5178 22.2123C24.3663 19.7577 25.7062 17.4764 27.4377 15.5474C29.2965 13.4413 31.5924 11.7075 34.1686 10.5852C36.306 9.63251 38.6127 9.10508 40.9395 8.89886C43.3009 8.72913 45.6968 8.79118 48.0163 9.29854C50.598 9.83509 53.0741 10.8991 55.2388 12.4138C57.5929 14.0527 59.5992 16.1916 61.0685 18.6608C62.5942 21.1976 63.5354 24.0738 63.8468 27.0176C64.2073 30.4212 63.9068 33.9179 62.7981 37.1628ZM77.5653 50.8741C70.1698 50.8741 69.3469 46.6985 69.3469 42.0921V12.881C69.3469 10.4428 71.3187 8.46633 73.7528 8.46633C76.1852 8.46633 78.1588 10.4428 78.1588 12.881V42.0921C80.3126 42.0921 81.9712 44.2493 81.9712 46.4576C81.9712 48.8958 79.9995 50.8741 77.5653 50.8741ZM16.299 50.8741C8.90358 50.8741 8.07883 46.6985 8.07883 42.0921V12.881C8.07883 10.4428 10.0524 8.46633 12.4848 8.46633C14.919 8.46633 16.8907 10.4428 16.8907 12.881V42.0921C19.0464 42.0921 20.705 44.2493 20.705 46.4576C20.705 48.8958 18.7314 50.8741 16.299 50.8741Z" fill="#ED174C"/>
<path fill-rule="evenodd" clip-rule="evenodd" d="M103.572 16.5278C105.234 16.442 106.915 16.6282 108.495 17.1629C111.09 18.0134 113.369 19.7325 114.978 21.9317C116.444 23.9264 117.334 26.3372 117.476 28.812C117.678 31.679 116.91 34.6064 115.295 36.9862C113.828 39.1744 111.718 40.9446 109.267 41.9192C106.159 43.1821 102.565 43.1821 99.4539 41.9265C96.8049 40.868 94.5473 38.8915 93.0781 36.4496C91.9165 34.5443 91.2629 32.3287 91.2174 30.0931C91.13 27.6604 91.7235 25.1966 92.9743 23.0997C93.8464 21.5612 95.0662 20.2399 96.4517 19.1504C98.4927 17.5918 101.005 16.6556 103.572 16.5278ZM105.87 35.3875C107.833 34.8856 109.457 33.2686 110.003 31.3177C110.365 30.0657 110.294 28.6952 109.812 27.487C109.345 26.3354 108.502 25.3408 107.457 24.6728C106.401 23.9994 105.129 23.7019 103.885 23.7987C101.855 23.9155 99.9892 25.2258 99.0771 27.0289C98.1467 28.8229 98.2505 31.1096 99.3392 32.8106C99.9146 33.7121 100.719 34.4804 101.682 34.9604C102.96 35.6138 104.486 35.7762 105.87 35.3875Z" fill="#ED174C"/>
<path fill-rule="evenodd" clip-rule="evenodd" d="M52.5768 20.5609C54.4939 22.552 55.792 25.1544 56.1398 27.9047C56.5039 30.613 56.0324 33.4382 54.7324 35.8454C53.3724 38.3839 51.1913 40.4918 48.5696 41.6836C45.7403 42.9903 42.445 43.2184 39.4555 42.3588C35.3427 41.2018 31.9472 37.8675 30.6108 33.8123C29.7205 31.1021 29.7387 28.0982 30.6618 25.4008C31.9199 21.7745 34.8147 18.7395 38.3959 17.3653C39.6375 16.8963 40.9502 16.6006 42.2775 16.5313C43.3061 16.4984 44.3475 16.5021 45.3634 16.6955C48.1035 17.1499 50.6688 18.5443 52.5768 20.5609ZM47.8686 33.1425C49.0338 31.5621 49.3106 29.3793 48.5878 27.5525C48.1599 26.4447 47.3789 25.4884 46.4121 24.8077C45.2396 23.9919 43.7704 23.647 42.3557 23.8258C41.0431 23.9755 39.7923 24.6106 38.8802 25.5687C37.8952 26.567 37.2707 27.9303 37.2106 29.3374C37.136 30.5254 37.4218 31.7354 38.0518 32.7483C38.8401 34.0331 40.1145 35.0259 41.5802 35.3982C42.9019 35.7614 44.3493 35.6209 45.5892 35.0387C46.5013 34.6244 47.2787 33.9473 47.8686 33.1425Z" fill="#ED174C"/>
<path fill-rule="evenodd" clip-rule="evenodd" d="M168.622 15.3468H160.618V8.85156H184.021V15.3468H176.017V35.5971H168.622V15.3468Z" fill="white"/>
<path fill-rule="evenodd" clip-rule="evenodd" d="M187.363 8.85547H208.823V15.1572H194.682V19.2069H207.487V25.0524H194.682V29.2974H209.014V35.5992H187.363V8.85547Z" fill="white"/>
<path fill-rule="evenodd" clip-rule="evenodd" d="M212.368 22.2996V22.223C212.368 14.4302 218.351 8.31641 226.433 8.31641C231.884 8.31641 235.392 10.6104 237.753 13.8936L232.189 18.2116C230.662 16.3027 228.909 15.0781 226.356 15.0781C222.62 15.0781 219.991 18.2518 219.991 22.1463V22.223C219.991 26.2344 222.62 29.3679 226.356 29.3679C229.14 29.3679 230.778 28.0703 232.379 26.1212L237.943 30.0943C235.428 33.5709 232.035 36.1296 226.129 36.1296C218.506 36.1296 212.368 30.2877 212.368 22.2996Z" fill="white"/>
<path fill-rule="evenodd" clip-rule="evenodd" d="M241.564 8.85547H248.96V18.8638H258.449V8.85547H265.844V35.5992H258.449V25.4357H248.96V35.5992H241.564V8.85547Z" fill="white"/>
<path fill-rule="evenodd" clip-rule="evenodd" d="M152.138 24.7852C150.964 23.9694 149.489 23.6208 148.074 23.7997C146.756 23.9493 145.505 24.5881 144.59 25.5481C143.605 26.5482 142.976 27.9133 142.916 29.324C142.844 30.5157 143.129 31.7294 143.759 32.7441C144.549 34.0307 145.828 35.0253 147.295 35.3976C148.622 35.7626 150.071 35.6221 151.313 35.0381C152.227 34.6238 153.006 33.9449 153.598 33.1364C154.767 31.5542 155.042 29.366 154.319 27.5355C153.889 26.4259 153.106 25.4659 152.138 24.7852Z" fill="white"/>
</svg>
